<svg xmlns="http://www.w3.org/2000/svg" viewBox="-2 -2 145 210">
  <path d="M88.625,0H40.757L15.3,25.457,64.692,92.228l49.389-66.771ZM81.859,16.333,92.583,27.057,64.692,64.764,36.8,27.057,47.523,16.333Z" transform="translate(15.326 0.001)" fill="#e62358"/>
  <path d="M139.926,38.7A82.78,82.78,0,0,0,125.97,27.471L123.5,25.894,111.253,42.455l2.9,1.79A61.539,61.539,0,1,1,31.795,61.085l9.632,8.405,4.6-40L5.372,38.025l10.936,9.544a81.978,81.978,0,0,0,65.66,131.053A81.968,81.968,0,0,0,139.926,38.7" transform="translate(-0.001 25.94)" fill="#f3995e"/>
</svg>
